<svg xmlns="http://www.w3.org/2000/svg" viewBox="0 0 55.91 65.65"><defs><style>.cls-1,.cls-8{fill:#00aeef;}.cls-2{fill:#808285;}.cls-3{fill:#565759;}.cls-4{fill:#414042;}.cls-5,.cls-6{fill:#fff;}.cls-6{stroke:#231f20;}.cls-6,.cls-7{stroke-miterlimit:10;}.cls-7{fill:#231f20;stroke:#fff;stroke-width:0.5px;}.cls-8{font-size:6.99px;font-family:Marguerite;}.cls-9{letter-spacing:-0.02em;}.cls-10{letter-spacing:0em;}</style></defs><g id="wings"><path class="cls-1" d="M18.77,14.38c-.13-.11,1.7-2.76,4.68-5.1a24,24,0,0,1,5.66-3h0s0,1.28.12,2.17v0l-.11,0a22.24,22.24,0,0,0-4.3,1.62A23.54,23.54,0,0,0,22,11.82C19.83,13.29,18.85,14.46,18.77,14.38Z" transform="translate(0.6 -0.11)"/><path class="cls-1" d="M19.91,15.27a25.3,25.3,0,0,1,5.77-4.22c3-1.67,3.47-1.28,3.5-1.24a.52.52,0,0,1,.06.16.61.61,0,0,1,0,.18l0,.17a1.63,1.63,0,0,0,0,.24V11c0,.11,0,.14,0,.25v.13c0,.1,0,.15,0,.18s-.07,0-.08,0a16.64,16.64,0,0,0-4.67,1.25,19.31,19.31,0,0,0-2.11.94C20.73,14.61,19.94,15.32,19.91,15.27Z" transform="translate(0.6 -0.11)"/><path class="cls-1" d="M20.82,16.64a6.9,6.9,0,0,1,1.75-1.19,19.64,19.64,0,0,1,2.59-1.13l1.44-.47c1.87-.61,2.18-.7,2.35-.53,0,0,.13.14-.23,1.74h0c-1.4,0-1.7,0-1.7,0a9.93,9.93,0,0,0-1.56.15,15.21,15.21,0,0,0-1.65.4c-.35.1-.78.22-1.33.41C21.37,16.4,20.85,16.69,20.82,16.64Z" transform="translate(0.6 -0.11)"/><path class="cls-1" d="M21.42,17.92a6.73,6.73,0,0,1,2-.84,10.94,10.94,0,0,1,2.59-.52,19.92,19.92,0,0,1,2.17,0h0l-.53,1.82h0c-1.46-.42-1.77-.48-1.77-.48a8.23,8.23,0,0,0-1.8-.16C22.46,17.72,21.45,18,21.42,17.92Z" transform="translate(0.6 -0.11)"/><path class="cls-1" d="M25.05,20.28a11.33,11.33,0,0,0-1.43-.45c-1.14-.28-1.89-.27-1.89-.35a11.82,11.82,0,0,1,2.71-.21c1.23,0,2.86,0,2.9.2S27,19.81,25.05,20.28Z" transform="translate(0.6 -0.11)"/><path class="cls-1" d="M23.39,22l-1.61-.74,1.85.17Z" transform="translate(0.6 -0.11)"/><path class="cls-1" d="M22.65,23.66h0l-.87-.58h0l1,.22h0Z" transform="translate(0.6 -0.11)"/><path class="cls-1" d="M19.62,23.7c.25-1.68.25-1.83.25-1.83A5.42,5.42,0,0,0,19.13,19a5.74,5.74,0,0,0-1.51-1.64,14.58,14.58,0,0,0-1.75-1.08h0l0-.5c-.24-2.87,3.79-7.63,3.79-7.63A30.65,30.65,0,0,1,28.16,1h0L28.83,4A17.66,17.66,0,0,0,21.21,9a63.35,63.35,0,0,0-3.81,5.45h0s1,.93,1.53,1.47a8,8,0,0,1,1.58,2.66c1,2.54.5,5.06,0,5.17a2.14,2.14,0,0,1-.53,0A1.94,1.94,0,0,1,19.62,23.7Z" transform="translate(0.6 -0.11)"/><path class="cls-1" d="M29.79,19.39c2.86-3.48,3-5.14,3-5.14.26-2.54-1.68-5.24-1.75-5.43a10.49,10.49,0,0,1,1.19-1.59,16.65,16.65,0,0,1,3-2.49h0a17.22,17.22,0,0,1,4.27-2,30.59,30.59,0,0,1,4.22-1.22c.28-.06,1.92-.34,1.92-.34L49.56.43h0A15.79,15.79,0,0,1,53,.22L54.27.11h0s.25.34-1.12,3.61a16.22,16.22,0,0,0-4.38-.4,43.25,43.25,0,0,0-5,.56h0A35.6,35.6,0,0,0,38.15,5.7a38.88,38.88,0,0,0-4.37,2.07c-.06-.22.85,3.61.86,3.77A8.67,8.67,0,0,1,34.23,15a12,12,0,0,1-3.48,4.76Z" transform="translate(0.6 -0.11)"/><path class="cls-1" d="M35.23,8.45h0A31.49,31.49,0,0,1,43.36,6a31,31,0,0,1,8.41.19h0l-1.26,2.4h0a30.51,30.51,0,0,0-6.74-1A26.49,26.49,0,0,0,40,7.72C37.74,8,35.23,8.45,35.23,8.45Z" transform="translate(0.6 -0.11)"/><path class="cls-1" d="M35.43,10.15h0a25.23,25.23,0,0,1,8.7-1,41.33,41.33,0,0,1,5.38.91h0L48.19,12h0a54.8,54.8,0,0,0-5.32-1.63A25.73,25.73,0,0,0,35.43,10.15Z" transform="translate(0.6 -0.11)"/><path class="cls-1" d="M35.85,12h0c4.86,0,5.64.11,5.64.11a29,29,0,0,1,5.32,1.36h0l-1.36,1.68h0C42.9,13.85,42,13.49,42,13.49s-.79-.3-1.68-.56A27.77,27.77,0,0,0,35.85,12Z" transform="translate(0.6 -0.11)"/><path class="cls-1" d="M35.65,13.84a15.84,15.84,0,0,1,4.68.82s.41.15,3.61,1.9l-1.83,1.57c-2.15-2-2.36-2.2-2.36-2.2A14.67,14.67,0,0,0,35.65,13.84Z" transform="translate(0.6 -0.11)"/><path class="cls-1" d="M35.17,15.87h0a18.55,18.55,0,0,1,3.14,1.48s.34.21,2.59,2h0l-1.48,1h0s-.73-1-1.14-1.53A17.74,17.74,0,0,0,35.17,15.87Z" transform="translate(0.6 -0.11)"/><path class="cls-1" d="M34.18,17.94h0c1.89,1.45,2.38,1.9,2.38,1.9A14.29,14.29,0,0,1,38,21.42l-1.3.66c-1-1.73-1.05-1.89-1.05-1.89C35,19,34.18,17.94,34.18,17.94Z" transform="translate(0.6 -0.11)"/><path class="cls-1" d="M36,20" transform="translate(0.6 -0.11)"/><path class="cls-1" d="M32.5,19.45l1.09,2A10.23,10.23,0,0,1,34,22.49c0,.17.09.31.11.4l1.19-.36a3.82,3.82,0,0,0-.43-.69,7.2,7.2,0,0,0-.61-.68h0Z" transform="translate(0.6 -0.11)"/><path class="cls-1" d="M50,22.09" transform="translate(0.6 -0.11)"/></g><g id="Shoe_base" data-name="Shoe base"><path class="cls-2" d="M11.34,48.65c3.22,0,3.22-5,0-5s-3.22,5,0,5Z" transform="translate(0.6 -0.11)"/><path class="cls-2" d="M.43,52.84c1.22-.81,2.22-.51,3.41.12a4.47,4.47,0,0,0,2.78.46,27.47,27.47,0,0,0,6.66-1.8,49,49,0,0,0,6-2.7,11.24,11.24,0,0,0,4.18-4.57c.39-.7-.69-1.33-1.08-.63a10.28,10.28,0,0,1-4.59,4.56A55.22,55.22,0,0,1,11.4,51a26.33,26.33,0,0,1-3.15.9c-1.13.25-2.5.61-3.61.1a6.21,6.21,0,0,0-2.46-.91,4,4,0,0,0-2.38.69c-.67.45,0,1.53.63,1.08Z" transform="translate(0.6 -0.11)"/><path class="cls-2" d="M.78,52.44a5.4,5.4,0,0,1,1.08-1.35,9.75,9.75,0,0,1,1.3-1.35,8.38,8.38,0,0,1,1.73-.84c.6-.26,1.2-.51,1.82-.71.77-.24.44-1.45-.33-1.2a19.29,19.29,0,0,0-2.07.81,8.33,8.33,0,0,0-2,1A12.16,12.16,0,0,0,.85,50.35,6,6,0,0,0-.42,52.11a.63.63,0,0,0,.44.77.64.64,0,0,0,.76-.44Z" transform="translate(0.6 -0.11)"/><path class="cls-2" d="M1.39,51.52a6.45,6.45,0,0,0,.47-.69L1.77,51a3.59,3.59,0,0,1,.59-.58l-.12.1.42-.31A.63.63,0,0,0,3,49.8a.66.66,0,0,0-.06-.48A.65.65,0,0,0,2.51,49a.62.62,0,0,0-.48.06,9.9,9.9,0,0,0-.88.69,4.72,4.72,0,0,0-.41.48c-.09.13-.16.28-.26.41l.1-.12-.08.08a.64.64,0,0,0,0,.89.65.65,0,0,0,.89,0Z" transform="translate(0.6 -0.11)"/><path class="cls-2" d="M6.46,48.27a5.23,5.23,0,0,0,1.75-1.81,10.16,10.16,0,0,0,1.14-2.37.62.62,0,0,0-.44-.76.63.63,0,0,0-.77.43,8,8,0,0,1-.39,1,10.59,10.59,0,0,1-.58,1,5.82,5.82,0,0,1-.6.79,3.23,3.23,0,0,1-.37.37L6.11,47s0,0,0,0l-.27.16a.63.63,0,0,0,.64,1.08Z" transform="translate(0.6 -0.11)"/><path class="cls-2" d="M9.43,44.36a4.21,4.21,0,0,1,1.83-1.09,9.75,9.75,0,0,1,2.18-.58,19.56,19.56,0,0,1,2.42-.07l2.54,0a.63.63,0,0,0,0-1.25,36.69,36.69,0,0,0-5.45.16,10.12,10.12,0,0,0-2.41.71,4.77,4.77,0,0,0-2,1.26c-.5.62.38,1.51.88.88Z" transform="translate(0.6 -0.11)"/><path class="cls-2" d="M18.19,41.58a18.83,18.83,0,0,1-2.37,3.29,8,8,0,0,1-1.44,1.22,9,9,0,0,1-1.72,1.14.62.62,0,0,0-.22.85.64.64,0,0,0,.85.23,9.52,9.52,0,0,0,1.77-1.17,10.41,10.41,0,0,0,1.65-1.38,21.34,21.34,0,0,0,2.56-3.55c.39-.7-.69-1.33-1.08-.63Z" transform="translate(0.6 -0.11)"/><path class="cls-2" d="M18.63,42.87l.95.13a8.24,8.24,0,0,1,1,.24,3.17,3.17,0,0,1,1.37.84.63.63,0,0,0,.89-.88c-1.08-1.17-2.69-1.4-4.19-1.58a.63.63,0,0,0-.63.63.65.65,0,0,0,.63.62Z" transform="translate(0.6 -0.11)"/><path class="cls-2" d="M10.8,47.49l.64-.32s.53-.24.2-.1a7.05,7.05,0,0,1,1.18-.38c.42-.09.85-.11,1.26-.22l.52-.17c.07,0,.63-.15.42-.13s.39,0,.46,0l.55,0c.44,0,.87,0,1.3,0h.56c.07,0,.79.07.42,0a7.84,7.84,0,0,1,1.25.3,1.88,1.88,0,0,0,2.3-1.31,1.92,1.92,0,0,0-1.31-2.31,13.93,13.93,0,0,0-6-.29,12,12,0,0,0-1.43.37c-.45.12-.91.14-1.36.24a13.29,13.29,0,0,0-2.82,1.16,1.89,1.89,0,0,0-.68,2.57,1.93,1.93,0,0,0,2.57.67Z" transform="translate(0.6 -0.11)"/><path class="cls-2" d="M21,46.34a1.88,1.88,0,0,0,0-3.75,1.88,1.88,0,0,0,0,3.75Z" transform="translate(0.6 -0.11)"/><path class="cls-2" d="M12.77,46.22a1.88,1.88,0,0,0,0-3.75,1.88,1.88,0,0,0,0,3.75Z" transform="translate(0.6 -0.11)"/><path class="cls-2" d="M17.19,44.75l-.08.11.67-.67a11.42,11.42,0,0,1-1.72,1.1,16.47,16.47,0,0,1-1.57.61,39,39,0,0,1-3.75,1.63c-.63.19-1.3.21-1.94.4s-1.07.47-1.66.62l-.37.09c.53,0,.49-.07-.13-.11a3,3,0,0,0-1.12.15l-.41.16c.3,0,.27,0-.07-.07a10.48,10.48,0,0,0-1.11-.25v3.62c1.05-.33,2.12-.61,3.14-1a9,9,0,0,0,2.88-2c1.73-1.69-.93-4.34-2.65-2.65a5.1,5.1,0,0,1-1.72,1.27c-.86.33-1.77.56-2.64.83-1.68.53-1.89,3.2,0,3.62a8.36,8.36,0,0,0,2.71.4s1.07-.19,1.07-.31l-.34.06.49.07a3.07,3.07,0,0,0,.8-.09,16.18,16.18,0,0,0,2.16-.74c.5-.17,1.4-.22,2-.42,1.43-.46,2.72-1.24,4.11-1.79s3.46-1.25,4.44-2.67a1.89,1.89,0,0,0-.67-2.57,1.91,1.91,0,0,0-2.56.67Z" transform="translate(0.6 -0.11)"/><path class="cls-2" d="M13.64,25.15c-1.46,6.4-3.52,12.57-5.57,18.8-.25.77,1,1.09,1.21.33,2-6.22,4.1-12.4,5.56-18.8.18-.78-1-1.11-1.2-.33Z" transform="translate(0.6 -0.11)"/><path class="cls-2" d="M14.33,25.83a16.82,16.82,0,0,1,3.37-.7,10.35,10.35,0,0,1,3.19-.05c.94.21,1.84.71,2.77,1a18.16,18.16,0,0,0,2.92.57,6.89,6.89,0,0,0,2.52,0,3.33,3.33,0,0,0,.89-.48,5.87,5.87,0,0,0,.75-.38,4.18,4.18,0,0,0,1-2.18,11.63,11.63,0,0,0,.34-3,.63.63,0,0,0-1.25,0,10.25,10.25,0,0,1-.34,2.81A3.19,3.19,0,0,1,30,24.72c-.17.18-.49.22-.7.36a2.94,2.94,0,0,1-2.14.36,17.78,17.78,0,0,1-2.9-.51c-.86-.23-1.67-.55-2.5-.86a6.13,6.13,0,0,0-2.29-.3,19.74,19.74,0,0,0-5.51.85c-.77.24-.44,1.45.33,1.21Z" transform="translate(0.6 -0.11)"/><path class="cls-2" d="M31.43,21.25c-.17-.06-.08,0,0,0s-.08-.08,0,0l.05.06c.05.05,0,.09,0,0,0,.1.12.19.17.29a4.44,4.44,0,0,0,.53.7l.53.54.13.15.05,0c0,.05.07.13,0,0a3.7,3.7,0,0,1,.21.33.63.63,0,0,0,.86.22.64.64,0,0,0,.22-.85A6.59,6.59,0,0,0,33,21.32l-.13-.15c0-.05,0-.11,0,0a.35.35,0,0,0-.05-.08,3.62,3.62,0,0,1-.2-.33,1.66,1.66,0,0,0-.83-.74.63.63,0,0,0-.77.44.64.64,0,0,0,.44.77Z" transform="translate(0.6 -0.11)"/><path class="cls-2" d="M33.08,23.51A13.79,13.79,0,0,1,36.4,28c.47.91.91,1.83,1.31,2.78a12.28,12.28,0,0,1,.54,1.47,13.26,13.26,0,0,0,.45,1.52c.3.73,1.51.41,1.21-.33a12,12,0,0,1-.46-1.52,11.41,11.41,0,0,0-.58-1.57c-.42-1-.89-2-1.39-3A14.47,14.47,0,0,0,34,22.63c-.61-.51-1.5.37-.88.88Z" transform="translate(0.6 -0.11)"/><path class="cls-2" d="M39,34.07l0,0-.12-.1,0,0-.1-.13a.41.41,0,0,1,0,.09l-.06-.15c.06.15.1.31.16.47l.16.5a.69.69,0,0,0,.29.38.62.62,0,0,0,.48.06.65.65,0,0,0,.38-.29.66.66,0,0,0,.06-.48l-.22-.66c0-.1-.06-.2-.1-.3a1.42,1.42,0,0,0-.12-.25,1,1,0,0,0-.29-.29.67.67,0,0,0-.48-.06.62.62,0,0,0-.38.29.66.66,0,0,0-.06.48.63.63,0,0,0,.29.37Z" transform="translate(0.6 -0.11)"/><path class="cls-2" d="M39.25,34.52c-.37,1.4-2.1,2.37-3.18,3.18-1.34,1-2.7,2-4.11,2.94s-2.69,1.5-4,2.34a6,6,0,0,0-1.47,1.29c-.43.54-.7,1.27-1.29,1.65s-.05,1.52.63,1.08a4.49,4.49,0,0,0,1.29-1.45,5,5,0,0,1,1.66-1.61c1.47-.91,3-1.69,4.44-2.66s2.87-2,4.26-3.11c1.16-.9,2.55-1.81,2.94-3.31a.62.62,0,0,0-1.2-.34Z" transform="translate(0.6 -0.11)"/><path class="cls-2" d="M25.19,45.83A11.82,11.82,0,0,1,21.13,51c-1.95,1.23-4.49,1.79-6.68,2.41a38.5,38.5,0,0,1-7.16,1.27,34.24,34.24,0,0,1-6.91-.57c-.8-.09-.79,1.16,0,1.25a33.66,33.66,0,0,0,7.62.5,42.85,42.85,0,0,0,7.69-1.5c2.2-.67,4.7-1.24,6.58-2.63a13.62,13.62,0,0,0,4-5.25c.32-.73-.76-1.36-1.08-.63Z" transform="translate(0.6 -0.11)"/><path class="cls-2" d="M-.35,51.86a1,1,0,0,0-.25.78c0,.19,0,.37,0,.56a10.38,10.38,0,0,0,.13,1.25.6.6,0,0,0,.28.38.65.65,0,0,0,.49.06.63.63,0,0,0,.37-.29.71.71,0,0,0,.06-.48l0-.19,0,.17a8.33,8.33,0,0,1-.08-.86,7.85,7.85,0,0,1,0-.84l0,.17s0,0,0,0l-.06.15s0,0,0,0l-.09.13v0a.62.62,0,0,0,0-.88.63.63,0,0,0-.88,0Z" transform="translate(0.6 -0.11)"/><path class="cls-2" d="M.3,52.18V53.7H1.55a8.72,8.72,0,0,1,.06-1.25l-1.22.16.28,1.18a.63.63,0,0,0,1.23-.17l0-1.27L.7,52.51,1,53.84c.17.72,1.18.51,1.23-.16l.11-1.49-1.22.17a6.48,6.48,0,0,1,.37,1.44.63.63,0,0,0,1.25,0c0-.45,0-.88,0-1.33a.63.63,0,0,0-1.25,0,6.86,6.86,0,0,0,.2,1.75.63.63,0,0,0,1.21,0,10.3,10.3,0,0,0,.26-1.74l-1.22.16a7.81,7.81,0,0,1,.37,1.42c.11.7,1.25.53,1.23-.16a3.6,3.6,0,0,1,.07-1.18H2.4l.34,1.6a.63.63,0,0,0,1.2,0,9.41,9.41,0,0,0,.16-1.58l-1.23.16a9.28,9.28,0,0,1,.45,1.62c.13.75,1.16.48,1.23-.16l.12-1.26-1.23.16.49,1.15c.2.49,1.09.69,1.2,0l.22-1.36H4.15l.45,1.52a.63.63,0,0,0,1.2,0l.48-1.45H5.07l.55,1.31a.63.63,0,0,0,1.21,0l.35-.87-1,.27.19.45.43-.77-.53.08c-.8.12-.45,1.32.33,1.21l3.82-.55-.48-1.14A10.82,10.82,0,0,1,7.6,54c-.66.18-.56,1.31.16,1.23,1.84-.21,3.67-.47,5.5-.76.7-.12.53-1.25-.17-1.23a10.41,10.41,0,0,1-2.83-.3l-.17,1.23,3.53-.43-.16-1.23a12.29,12.29,0,0,1-3.26.21l.17,1.23a8.23,8.23,0,0,1,3.23-.51l-.17-1.23a20.08,20.08,0,0,1-6,.65l.17,1.23a38,38,0,0,1,4.25-.84L11.48,52a9.75,9.75,0,0,1-3.87.39l.17,1.23a45,45,0,0,1,6.73-1l-.17-1.23a6.79,6.79,0,0,1-3.3.51l.16,1.23a44.45,44.45,0,0,1,6.58-1.07l-.31-1.16c-.51.24-2.29,1-2.71.66l.31.53c0,.32.35-.22.5-.34s.6-.45.92-.65a11.28,11.28,0,0,1,2-1l-.7-.92a2.49,2.49,0,0,1-2,1.14l.31,1.16A12.34,12.34,0,0,1,21,49.7l-.6-1a8.18,8.18,0,0,1-4.21,1.92,4,4,0,0,1-.5.06c-.33,0-.26,0,.2-.14a5.93,5.93,0,0,1,.86-.63,7,7,0,0,1,2.5-.75l-.6-.79c-.38,1.17-1.61,1.78-2.67,2.25a7.43,7.43,0,0,1-3.46.84l.6.46c-.05-.2,1.4-1,1.52-1.09a4.12,4.12,0,0,1,2-.6l-.54-.31c.64,1-2.18,2-2.73,1.71-.27,0-.29,0-.07-.19l.36-.11A7.37,7.37,0,0,1,15.21,51c.29,0,2.34-.32,1.8.32-.22.26-1.29.25-1.59.25a8.9,8.9,0,0,1-1.25-.07c-.17.16-.11.15.17,0a1.84,1.84,0,0,1,.63-.23l.58-.07c.63,0,.77.05.43.06-.26.49-2.74.4-2.81.6,0,0,2.6.23.82.29a2.83,2.83,0,0,1-.77,0c-.46-.12-.46-.06,0,.19l.4-.1a.62.62,0,0,0,.85-.37l.44.77c.1-.37.31-.36.63,0a2,2,0,0,1-1.07-.38l.16.6a1.71,1.71,0,0,1,1.19-.49c-.34.05-.37.12-.09.23a1.76,1.76,0,0,1,.71-.59,3.15,3.15,0,0,1,.77-.25,2.85,2.85,0,0,1,1,0c1.09-.51,1-.66-.18-.44,0-.09,1.28-.58,1.1-.64l.43.44a1.81,1.81,0,0,1,.9-1.8,1.18,1.18,0,0,1,.74-.84l-.6-.16-.51-.17a3.86,3.86,0,0,0,1-.94c.12-.28.2-.31.23-.09s.05.18.06.09L22,47a1.38,1.38,0,0,1-.69-1.19q-.2-.42.24-.24c.3.11.46,0,.5-.38.72.06.16.66.45.86.44.09.63-.06.57-.46a.76.76,0,0,1,.46-.79l-.85-.22.11.71c-.15.29-.2.31-.17.08s0-.89.53-.87l-.54-.31a.82.82,0,0,1-.23,1.18H23c-.07-.84.29-1.07,1.09-.68,0,.6,0,.66.11.18,0-.25.07-.37.29-.36q0,1-1.17.75l-.92-.37a1.69,1.69,0,0,1-.75,2l.92.37a1,1,0,0,0-.93.37l.76.77c1.15-.09,1.21.06.18.44l-1.16-.31-.2.42,1,.28.17-.43-1-.27a.78.78,0,0,1-.21,1l.76.1c.1.1.67-.61.87-.77l-1.05-.28a.9.9,0,0,1-.65,1.13l.77.77a5.11,5.11,0,0,1,1.38-2.29l-1.05-.28a1.51,1.51,0,0,1-.55,1.41l1,.61a5.15,5.15,0,0,1,1-2.25l-1.16-.31a2,2,0,0,1-.42,1.44l1.05.61a11.22,11.22,0,0,1,1.52-2.59l-1.16-.32a.88.88,0,0,1-.22.87l1.14.48A6.82,6.82,0,0,1,25,46.48l-1.17-.32a1.42,1.42,0,0,1,0,.84l1.23.17a4.25,4.25,0,0,1,.23-1.27L24,45.57l-.16.65a.62.62,0,0,0,1.2.33,7.23,7.23,0,0,1,.66-1.63l-1.17-.32a2.38,2.38,0,0,1,0,.84.63.63,0,0,0,1.21.34l.38-1c.29-.75-.92-1.08-1.2-.33l-.39,1,1.21.34a5.2,5.2,0,0,0,.07-1.18.63.63,0,0,0-1.16-.31,8.77,8.77,0,0,0-.78,1.93l1.2.33.16-.65a.62.62,0,0,0-1.2-.33,5.43,5.43,0,0,0-.28,1.6.63.63,0,0,0,1.23.16,3.08,3.08,0,0,0,.09-1.17.63.63,0,0,0-1.16-.31,7.65,7.65,0,0,0-.72,1.66c-.21.71.76,1,1.15.48a2.1,2.1,0,0,0,.39-1.5.63.63,0,0,0-1.17-.31,12.65,12.65,0,0,0-1.65,2.88c-.23.57.67,1.09,1,.61a3.39,3.39,0,0,0,.78-2.32A.63.63,0,0,0,22.58,47a6.08,6.08,0,0,0-1.1,2.54.64.64,0,0,0,1.05.61,2.72,2.72,0,0,0,.88-2.62.63.63,0,0,0-1.05-.27,6.39,6.39,0,0,0-1.69,2.84.62.62,0,0,0,.77.76A2.21,2.21,0,0,0,23,48.23.64.64,0,0,0,21.91,48c-.66.53-1.74,1.76-.87,2.54a.65.65,0,0,0,.76.1,2,2,0,0,0,.78-2.42.63.63,0,0,0-1-.28,1.42,1.42,0,0,0-.49,1.64.63.63,0,0,0,1,.27,1.56,1.56,0,0,0,.57-1.3.64.64,0,0,0-1.17-.32c-1.43,2,2.25,3.54,3,1A1.75,1.75,0,1,0,21.19,48c-.18.45.35.9.77.77,1.09-.33,2.29-2,1.26-3s-2.14.79-1.87,1.78a.64.64,0,0,0,.92.37,3,3,0,0,0,1.32-3.36.63.63,0,0,0-.92-.38A1.54,1.54,0,0,0,23,47c1.6.56,2.83-1.16,2.77-2.59s-1.47-1.76-2.32-.7-.76,3.48,1,2.77c1.27-.51,1.13-2.39.22-3.16-1.23-1-2.72.36-2.85,1.67s1.12,2.21,1.92.81c.55-1,.32-3-1.19-2.43-1.21.43-1.78,3-.44,3.59a1.34,1.34,0,0,0,1.56-.59A2.19,2.19,0,0,0,23.74,44a.63.63,0,0,0-.86-.22,2.31,2.31,0,0,0-.92,3c.65,1,1.65.22,1.77-.68s-.33-2.36-1.48-2.32a2.13,2.13,0,0,0-1.71,2.53,1.3,1.3,0,0,0,2.21.6A1.87,1.87,0,0,0,22,44.09c-2.72-.82-2.78,4.65-.12,3.62,1.07-.41,1-2,.24-2.65s-1.89-.11-2,.89.7,2.49,1.78,2.29.79-1.81.21-2.35c-1.83-1.68-4.19,3.63-1.19,3.69a1.47,1.47,0,0,0,1.35-2c-.5-1.28-2.22-1.19-3.06-.32-2.12,2.18,2.49,4.24,2.7,1.3a1,1,0,0,0-1.82-.9,2.25,2.25,0,0,0-.58,2.93,1.14,1.14,0,0,0,2-.67c.07-1.22-1.46-1.62-2.27-.89a1.55,1.55,0,0,0,.33,2.53c1.14.5,2-.61,1.79-1.7-.31-1.34-1.75-1.33-2.55-.4-.53.62-1.05,2.54.35,2.52a1.48,1.48,0,0,0,1.12-2.11c-.69-.94-2.65,0-3.25.67-.9,1,0,2.07,1.16,2s2.31-1,1.77-2.12c-1-2.15-4.4,2.17-1.63,2.82a1.26,1.26,0,0,0,1.29-1.86c-.59-1.19-2.36-1.07-3.41-.67-.79.29-2.34,1.41-1.77,2.47s2.27.56,2.78-.15c1.85-2.57-4.71-2.5-3.8-.12.34.92,2.32,1.2,3.08.77,1-.57.59-2-.25-2.48a1.79,1.79,0,0,0-2.59,1.05.63.63,0,0,0,.44.77c.81.12,2.09-.12,1.83-1.27s-1.89-.94-2.68-.77-1.86.53-1.64,1.48c.27,1.2,2.52,1.06,3.36.81a1.12,1.12,0,0,0,.66-1.78,2.43,2.43,0,0,0-2.77-.67c-.7.29-1.33,1.14-.76,1.85.7.88,2.5.39,3.37.09s2-.79,1.84-1.85c-.2-1.28-2.21-1-3.06-.75-.68.23-1.65.71-1.4,1.59.32,1.09,2.1,1.13,3,1.08s2.48-.32,2.83-1.41-.44-1.6-1.32-1.73a10.64,10.64,0,0,0-4.44.51c-.82.29-2.11,1.24-1.25,2.19s2.91.42,3.86,0,2.24-1.52,1.79-2.81c-.69-2-5.94.83-5.45,2.61a.63.63,0,0,0,.6.46A8.78,8.78,0,0,0,17,51.48a5,5,0,0,0,2.86-2.82.63.63,0,0,0-.6-.79,7.43,7.43,0,0,0-3.86,1.41c-.59.48-1.43,1.51-.78,2.28s2.24.22,3,0a9.69,9.69,0,0,0,3.69-2c.53-.45-.06-1.12-.61-1a13.13,13.13,0,0,0-5.16,1.92c-.49.31-.33,1.21.32,1.17a3.83,3.83,0,0,0,3.08-1.76.63.63,0,0,0-.71-.91,13,13,0,0,0-3,1.56c-.5.37-1.45.88-1.37,1.62.19,1.65,3.55.24,4.28-.11a.63.63,0,0,0-.32-1.17,47.58,47.58,0,0,0-6.91,1.11c-.72.17-.5,1.17.17,1.23a7.57,7.57,0,0,0,3.64-.56c.59-.24.6-1.28-.17-1.22a47.94,47.94,0,0,0-7.06,1.07c-.73.17-.5,1.17.16,1.23a10.55,10.55,0,0,0,4.21-.44.62.62,0,0,0-.34-1.2,34.18,34.18,0,0,0-4.24.84A.62.62,0,0,0,7.4,54.1a21.31,21.31,0,0,0,6.36-.69.63.63,0,0,0-.16-1.23,9,9,0,0,0-3.57.56A.62.62,0,0,0,10.2,54a14.41,14.41,0,0,0,3.59-.25c.68-.14.54-1.32-.17-1.23l-3.53.43c-.64.08-.91,1.05-.16,1.23a12,12,0,0,0,3.16.34l-.16-1.23c-1.72.28-3.44.52-5.17.72l.17,1.23a12.76,12.76,0,0,0,2.59-1c.68-.36.16-1.23-.49-1.14l-3.81.54.33,1.21.54-.09A.62.62,0,0,0,7.52,54,2.22,2.22,0,0,0,7,53c-.32-.41-.89-.11-1,.28l-.35.87H6.83l-.55-1.31a.63.63,0,0,0-1.21,0L4.6,54.23H5.8l-.45-1.52c-.16-.54-1.1-.64-1.2,0l-.22,1.37h1.2l-.48-1.15a.63.63,0,0,0-1.23.17L3.3,54.36l1.22-.17a9.25,9.25,0,0,0-.44-1.62.63.63,0,0,0-1.23.17A5.16,5.16,0,0,1,2.74,54h1.2L3.6,52.39a.62.62,0,0,0-1.2,0,6.33,6.33,0,0,0-.12,1.51l1.22-.17a7.07,7.07,0,0,0-.37-1.42.63.63,0,0,0-1.23.17,7.52,7.52,0,0,1-.22,1.41H2.89a5.25,5.25,0,0,1-.16-1.42H1.48c0,.45,0,.88,0,1.33H2.76A7.73,7.73,0,0,0,2.34,52a.63.63,0,0,0-1.23.16L1,53.68l1.23-.17-.32-1.33a.63.63,0,0,0-1.23.17l0,1.27,1.22-.17-.28-1.17c-.18-.74-1.14-.48-1.23.17A8.72,8.72,0,0,0,.3,53.7a.63.63,0,0,0,1.25,0V52.18a.63.63,0,0,0-1.25,0Z" transform="translate(0.6 -0.11)"/><path class="cls-2" d="M14.21,26.36c-.43,1.43-.84,2.86-1.27,4.29s-1,2.61-1.51,3.92a7.16,7.16,0,0,0-.58,1.84c-.09.27-.09.33,0,.19-.07.12-.15.24-.23.35a4,4,0,0,0-.51,1c-.06.19-.12.55-.16.66-.14.37-.39.69-.5,1.08a10.31,10.31,0,0,0-.19,1.24,3.94,3.94,0,0,0-.18.75A1.9,1.9,0,0,0,11,43.55a1.92,1.92,0,0,0,1.88-1.88c0,.32,0,.32.08,0s.06-.5.1-.75c.19-.66-.08.18.18-.42s.36-1.13.55-1.48.31-.46.44-.71a5.23,5.23,0,0,0,.34-1.15,10.34,10.34,0,0,1,.58-1.73,75.74,75.74,0,0,0,2.72-8.07c.69-2.32-2.93-3.31-3.61-1Z" transform="translate(0.6 -0.11)"/><path class="cls-2" d="M16.58,27.65c.24.21.13.12.09,0a2.42,2.42,0,0,1,0,.4A6.93,6.93,0,0,1,16,29.53a13.24,13.24,0,0,0-1,3.86,22.23,22.23,0,0,1-.68,3.28c-.17.64-.34,1.27-.52,1.9a15.15,15.15,0,0,1-.42,1.6l1.12-.86-.13,0h1c-.14,0,.41.12.42.24l-3.21,1.32c-.06-.07-.09-.28,0,.11.6,2.34,4.22,1.35,3.62-1a4.27,4.27,0,0,0-1-1.77A1.89,1.89,0,0,0,12,39.6a3.82,3.82,0,0,0,1.6,3.06,2.11,2.11,0,0,0,3.06-.75,16.23,16.23,0,0,0,.95-3.16c.26-.94.51-1.9.75-2.85s.24-1.78.39-2.67a10.28,10.28,0,0,1,.78-2.41c.87-1.88,1.49-4.24-.32-5.82a1.91,1.91,0,0,0-2.65,0,1.9,1.9,0,0,0,0,2.65Z" transform="translate(0.6 -0.11)"/><path class="cls-2" d="M18.35,27.18c1.11,1.82-.56,4.21-1.13,6-.35,1.07-.56,2.19-.84,3.29s-.71,2.45-1.12,3.66a1.88,1.88,0,0,0,1.31,2.31,1.91,1.91,0,0,0,2.3-1.31c.45-1.29.85-2.6,1.19-3.93a32.71,32.71,0,0,1,1-3.76,18.68,18.68,0,0,0,1.23-3.7,6.38,6.38,0,0,0-.75-4.44c-1.25-2.05-4.5-.17-3.23,1.9Z" transform="translate(0.6 -0.11)"/><path class="cls-2" d="M20.25,27.44c.73.56.65,1.66.6,2.51a10.37,10.37,0,0,1-.8,3.38c-.47,1.11-1.26,2-1.76,3.12A28.23,28.23,0,0,0,17,40.39c-.68,2.32,2.93,3.31,3.62,1a15,15,0,0,1,1.39-4,15.89,15.89,0,0,0,2-4.24,13.26,13.26,0,0,0,.55-4.55,5.87,5.87,0,0,0-2.46-4.42,1.88,1.88,0,0,0-2.57.67,1.93,1.93,0,0,0,.67,2.56Z" transform="translate(0.6 -0.11)"/><path class="cls-2" d="M22.26,28.54a4.13,4.13,0,0,1,.93.94,1.65,1.65,0,0,1,.18,1,9.62,9.62,0,0,1,0,1.61,5.5,5.5,0,0,1-.52,1.44,69.74,69.74,0,0,0-2.57,7.32,1.87,1.87,0,0,0,3.61,1c.46-1.39.91-2.78,1.37-4.17s1.07-2.53,1.52-3.83a9.94,9.94,0,0,0,.3-4.27,5.52,5.52,0,0,0-2.15-3.69,1.92,1.92,0,0,0-2.65,0,1.89,1.89,0,0,0,0,2.65Z" transform="translate(0.6 -0.11)"/><path class="cls-2" d="M25.19,29.53a9.15,9.15,0,0,0,5.21-.1A4.24,4.24,0,0,0,33,27.72a16.76,16.76,0,0,0,1.1-2,1.88,1.88,0,0,0-3.24-1.9c-.3.58-.58,1.17-.92,1.72a2,2,0,0,0-.12.19c0-.07.27-.31.1-.13s-.14.11-.15.16l.21-.16-.1.06-.1.06.23-.09a1.87,1.87,0,0,0-.22.07l-.51.13c-.32.07-.64.14-1,.19l-.24,0c-.06,0-.35.05-.05,0s0,0-.05,0l-.25,0c-.32,0-.63,0-1,0s.38.08.15,0l-.23-.05a3.13,3.13,0,0,1-.52-.16,1.89,1.89,0,0,0-2.3,1.31,1.92,1.92,0,0,0,1.31,2.31Z" transform="translate(0.6 -0.11)"/><path class="cls-2" d="M27.24,29.13l-2.52,7.05A20.12,20.12,0,0,1,23.51,39a22.85,22.85,0,0,1-1.79,3l1.12-.86-.05,0,2.12.86,0,0-.3,2.27,0,0A1.87,1.87,0,0,0,22,41.59l0,0a1.91,1.91,0,0,0-.29,2.27l0,0a1.93,1.93,0,0,0,2.12.87c1.3-.52,1.94-2.12,2.61-3.28a23.87,23.87,0,0,0,1.69-3.67c.95-2.57,1.85-5.15,2.77-7.73a1.88,1.88,0,0,0-3.62-1Z" transform="translate(0.6 -0.11)"/><path class="cls-2" d="M30.28,28.85a12.82,12.82,0,0,1-2.62,6.83c-.75,1-1.53,2.07-2.24,3.13a9.92,9.92,0,0,0-1.06,2c-.11.27-.21.55-.3.82s0,0,.14-.09C22.13,42.75,24,46,26.09,44.76c1.35-.8,1.47-2.3,2.22-3.53s1.72-2.45,2.58-3.66A16.3,16.3,0,0,0,34,28.85,1.89,1.89,0,0,0,32.16,27a1.91,1.91,0,0,0-1.88,1.87Z" transform="translate(0.6 -0.11)"/><path class="cls-2" d="M25.5,45.44a1.88,1.88,0,0,0,0-3.75,1.88,1.88,0,0,0,0,3.75Z" transform="translate(0.6 -0.11)"/><path class="cls-2" d="M33,28.48l.13.07-.67-.68c-.08-.24-.07-.2,0,.12l.14.54.27,1.09a6.43,6.43,0,0,1,.39,2.07c-.11,1.18-1.08,2.27-1.74,3.21-.42.58-.81,1.2-1.26,1.76A7.45,7.45,0,0,1,29,37.86a27.27,27.27,0,0,0-3.16,2.92L29,42.1l-.13.4a1.91,1.91,0,0,0-.67-2.57,1.89,1.89,0,0,0-2.56.68,2.91,2.91,0,0,0-.39,1.49,1.9,1.9,0,0,0,3.2,1.33,35,35,0,0,1,3.8-3.4A10.61,10.61,0,0,0,34,37.91c.5-.7,1-1.39,1.48-2.1A7.31,7.31,0,0,0,37,30.56c-.14-.93-.41-1.84-.64-2.75s-.42-2-1.41-2.57c-2.12-1.15-4,2.08-1.89,3.24Z" transform="translate(0.6 -0.11)"/><path class="cls-2" d="M27.52,40a2.7,2.7,0,0,0-.35,1.33c0,1.31,1.64,2.48,2.82,1.62.85-.62,1.86-.94,2.68-1.59.41-.32.74-.72,1.17-1a8.67,8.67,0,0,0,1.27-1.07A21.65,21.65,0,0,1,37,37.18c.84-.7,1.93-1.28,2.12-2.57l-3.14.83.17.13-.48-.83.07.2A1.94,1.94,0,0,0,38,36.25a1.9,1.9,0,0,0,1.31-2.31l-.77-2.31a16.06,16.06,0,0,0-.93-2.54,15.71,15.71,0,0,0-1.27-1.65,7,7,0,0,1-.93-1.75,1.92,1.92,0,0,0-2.31-1.31,1.89,1.89,0,0,0-1.31,2.3,12.42,12.42,0,0,0,1,2.13c.43.71,1,1.28,1.49,2a7.4,7.4,0,0,1,.62,1.73l.82,2.45,3.62-1a2.37,2.37,0,0,0-.73-1.15,2,2,0,0,0-1.82-.48,1.81,1.81,0,0,0-1.31,1.31c-.06.24,0,.26.07,0s.12-.21-.05,0a2.37,2.37,0,0,0-.33.22,7.33,7.33,0,0,0-1.17,1c-.6.61-1.07,1.33-1.67,1.93a7.57,7.57,0,0,1-.78.62c-.41.3-.74.7-1.12,1a4.37,4.37,0,0,1-1,.51,7.47,7.47,0,0,0-1.26.8l2.82,1.62v-.2l-.25.94.09-.17c1.16-2.12-2.08-4-3.24-1.9Z" transform="translate(0.6 -0.11)"/><path class="cls-2" d="M32.2,23.22a.63.63,0,0,0,0-1.25.63.63,0,0,0,0,1.25Z" transform="translate(0.6 -0.11)"/><path class="cls-2" d="M23.59,25.18a13.63,13.63,0,0,1,.83-2.4,4.31,4.31,0,0,1,.52-1,2.64,2.64,0,0,1,.91-.64c1.44-.68,3.29-1.08,4.72-.22a.63.63,0,0,0,.63-1.08c-1.81-1.09-4-.65-5.86.17a3.53,3.53,0,0,0-1.89,1.89,16.25,16.25,0,0,0-1.07,3c-.17.78,1,1.11,1.21.33Z" transform="translate(0.6 -0.11)"/><path class="cls-2" d="M30.68,20.71A12.6,12.6,0,0,1,30.06,23a10.8,10.8,0,0,1-.48,1,1,1,0,0,1-.21.35,1.45,1.45,0,0,1-.46.09,17.51,17.51,0,0,1-2.28.18,6.08,6.08,0,0,1-1.13-.09,5.66,5.66,0,0,1-.56-.13l-.15-.05c-.21,0-.05,0-.05,0v.33a3.61,3.61,0,0,1,.33-.82c.14-.3.29-.6.45-.89.25-.47.45-.9,1-.93a11.27,11.27,0,0,0,1.83-.3c.33-.07.91-.16,1.11.21s-.15,1-.38,1.31a1.29,1.29,0,0,1-1.24.57c-.15,0-.48,0-.6-.1s-.13-.44-.14-.61a.81.81,0,0,1,.76-.87l.09,0h.11L28,22.12a2.24,2.24,0,0,1,.12.29.7.7,0,0,1,0,.6c-.25.38-1,.38-1.38.37a.6.6,0,0,1-.42-.1.79.79,0,0,1-.1-.62,1.11,1.11,0,0,1,.58-.85s.17,0,.1,0L27,22a1.66,1.66,0,0,1,.13.69c0,.16,0,.46-.1.58a.56.56,0,0,1-.28.1c-.05,0-.18,0-.21,0h-.06l.13.12s-.05-.82-.06-.83v0s-.15.05-.14.08.25.11.28.13a2.06,2.06,0,0,1,.48.45c.09.13.38.52.33.7,0-.13,0,0-.11,0a1.8,1.8,0,0,1-.47.12,2.36,2.36,0,0,1-.46,0s.06.11,0,.05a.72.72,0,0,1-.05-.21,1.84,1.84,0,0,1,.06-.9,1.09,1.09,0,0,0,.08-.15c.11.27-.12,0-.14,0a.88.88,0,0,1,.06.1c0,.2.18.51.08.71s-.37.24-.52.29-.33.14-.45,0a.89.89,0,0,1-.08-.62l-.16.28h0l-.31.09c-.19-.16-.26-.17-.2-.05l.06.19a1.42,1.42,0,0,1,0,.2c0,.16.09.11.35-.17l.28.16c0,.12,0,.12,0,0V24a1,1,0,0,1,.06-.25.74.74,0,0,1,.38-.4,1.35,1.35,0,0,0,.24-.08h.07l-.09-.09a2.77,2.77,0,0,1,0,.41l.16-.28-.05.06.28-.16h-.07l.48.07L27,23.25l.22.22a1.21,1.21,0,0,1,.1-1.23c.19-.27.58-.56.9-.32a1,1,0,0,1,.29.52c0,.06,0,0,.05,0l-.07,0c-.06,0-.13,0-.18,0s-.08-.28.06-.23,0,.28.06.33.16,0,.16,0-.09-.26-.08-.21a.93.93,0,0,1,.4-.92c.09-.07.1,0,.09.09v.15c0-.05.47,0,.29.11,0,0,.17-.27.18-.3s.15,0,0-.11,0-.06,0,.06a2.48,2.48,0,0,1,0,.27l.29-.37-.06,0,.48-.07-.06,0,.27.16c.07.07,0-.07,0-.11s.07-.1-.1,0l-.32.09h0l-.28-.16.06.06L29.56,21l0,.07v-.33l0,.07.44-.43c-.32.12-.74-.13-1.07-.16a1.5,1.5,0,0,0-.72.14,1,1,0,0,0-.25.12c-.2.17.5.36.08.48h-.28l-.37-.29,0,.05-.06-.48,0,.07.16-.28c-.08.1-.26.13-.39.19a1,1,0,0,0-.47.45c-.34.72.73,1.36,1.08.63,0,0-.07.06,0,0s.23-.08.34-.14a.93.93,0,0,0,.49-.59c.2-.76-.76-1.06-1.24-.61A1,1,0,0,0,28,21.75a1.31,1.31,0,0,0,.44-.12,1.34,1.34,0,0,1,.37-.16,1.75,1.75,0,0,1,.54.12,2,2,0,0,0,.8.05.75.75,0,0,0,.18-1.43c-1.31-.63-1.77,2.1-.47,2.27.73.09.86-.72.8-1.26a1.18,1.18,0,0,0-1-1.1c-1.19-.14-2.25,1.66-1.24,2.51A1.08,1.08,0,0,0,30,22.38a1.59,1.59,0,0,0,.06-1.59c-.6-1.14-2.09-.62-2.56.34s-.33,2.58,1,2.64,1.54-1.7.76-2.43a1.34,1.34,0,0,0-2.25,1,1.44,1.44,0,0,0,2.45.92c.85-.85-.08-2.4-1.06-2.67a2.16,2.16,0,0,0-2.46,1.69A2.5,2.5,0,0,0,26,23.94a.76.76,0,0,0,1.44-.05,1.68,1.68,0,0,0-.24-1.46,1.37,1.37,0,0,0-1.54-.28,2,2,0,0,0-1.19,1.12,1.75,1.75,0,0,0,.09,1.66.91.91,0,0,0,1.48-.18A1.89,1.89,0,0,0,25.91,23a.86.86,0,0,0-1.45-.13,1.76,1.76,0,0,0,0,1.52c.45,1.2,1.88,1.1,2.78.46a1.5,1.5,0,0,0,.64-1.43,1.94,1.94,0,0,0-.71-1.56,1.14,1.14,0,0,0-1.5.23,2.39,2.39,0,0,0-.45,1.64,1.6,1.6,0,0,0,.69,1.48,2.52,2.52,0,0,0,1.85,0,1.36,1.36,0,0,0,1-1.25,2.86,2.86,0,0,0-.7-1.55,2.58,2.58,0,0,0-1.29-.89,1.11,1.11,0,0,0-1.39.71,2.82,2.82,0,0,0,.06,1.7c.26.7.95.75,1.59.63a1.54,1.54,0,0,0,1.25-1.06,3.33,3.33,0,0,0,0-1.66,1.74,1.74,0,0,0-1-1.24,1.62,1.62,0,0,0-1.52.41,2.41,2.41,0,0,0-.59,2.81c.55,1,2.07.95,3,.6a1.84,1.84,0,0,0,1.16-1.1,2.29,2.29,0,0,0-.24-1.75c-.55-1.08-2.17-.54-2.77.21s-.6,2.58.45,3.08a2.81,2.81,0,0,0,3.14-.58c.72-.83,1.3-2.15.55-3.15s-2-.67-3.06-.44a8.73,8.73,0,0,0-1.76.28,2.65,2.65,0,0,0-1.09,1.18,18.39,18.39,0,0,0-.84,1.73,1.3,1.3,0,0,0-.14.88,1.14,1.14,0,0,0,.56.66,4.73,4.73,0,0,0,1.74.42,10.06,10.06,0,0,0,1.82,0,16.22,16.22,0,0,0,1.84-.23,1.75,1.75,0,0,0,1.24-1.15A12.52,12.52,0,0,0,31.89,21a.63.63,0,0,0-1.21-.33Z" transform="translate(0.6 -0.11)"/></g><g id="Shoe_detail_black_" data-name="Shoe detail (black)"><path class="cls-3" d="M39.13,31.06a12,12,0,0,1,1.38,3.6c.12.57-.07,1.05-1.11,2.17A23,23,0,0,1,35,40.21a42,42,0,0,1-5.43,3.39A10.64,10.64,0,0,0,27.77,45a8.64,8.64,0,0,0-1.62,2.27s-1.38,1.87-2.69,3.45c-1.17,1.4-2.9,2.27-6.2,3.16a46,46,0,0,1-9.35,1.91,28.37,28.37,0,0,1-5.1-.13c-.54-.08-.68-.15-1.5-.25S.15,55.35,0,55.15c-.28-.4.08-1.31.7-1.79A2.84,2.84,0,0,1,2.9,53a7.9,7.9,0,0,1,2,.74c1.57.55,3-.2,5.38-1A26.7,26.7,0,0,0,13,51.8c3-1.24,3.09-.92,4.76-1.69,1.28-.6,4-1.86,5.23-4.44.24-.49.2-.56.61-1.44a19.74,19.74,0,0,1,2.17-3.63,33.19,33.19,0,0,1,2.49-2.72c1.27-1.32,2.19-2.28,3.54-3.48a22.51,22.51,0,0,1,1.88-1.59A17.88,17.88,0,0,0,36,31a3.41,3.41,0,0,0,.77-.92c.46-.87.68-2.2.85-2.24S38.24,29.37,39.13,31.06Z" transform="translate(0.6 -0.11)"/><path class="cls-4" d="M39,26" transform="translate(0.6 -0.11)"/></g><g id="Shoe_detail_white_" data-name="Shoe detail (white)"><path class="cls-5" d="M38.82,30.21c-.07-.17-.17-.4-.27-.69s-.17-.58-.2-.57a17.35,17.35,0,0,0-.16,3c0,.66-.17,1.53-.42,1.55s-.2-.26-.67-.76c-.24-.26-.55-.53-.59-.5A2.94,2.94,0,0,0,37,33c.37.54.45.6.46.78s-.1.4-.33.83a3.58,3.58,0,0,1-.47.59,7.63,7.63,0,0,0-.71-1,2.52,2.52,0,0,0-.67-.59,5,5,0,0,0,.52.83c.51.77.54.91.51,1.05s-.21.28-.6.66a2.9,2.9,0,0,1-.53.35c-1.29-1.45-1.52-1.66-1.55-1.68a11,11,0,0,0,.64,1c.41.59.54.79.48,1s-.07.14-.45.46a5.56,5.56,0,0,1-.91.64s-.29-.53-.54-.88a2.81,2.81,0,0,0-1-.92s.31.36.65.92.53.88.42,1.14-.32.15-.8.52-.47.51-.62.48-.19-.38-.43-.81a1.83,1.83,0,0,0-1-.88s.19.26.56.86c.5.81.48,1,.45,1s-.27.17-.74.52-.5.54-.67.51-.17-.33-.43-.72a1.59,1.59,0,0,0-.84-.72s.08.16.57.91c.3.45.37.56.34.7s-.25.2-.64.56-.45.56-.59.53-.08-.12-.19-.32a2.2,2.2,0,0,0-.34-.4c-.25-.26-.66-.63-.7-.59s.05.12.56.83c.28.4.37.51.35.67s-.16.19-.51.54-.48.61-.66.59-.13-.09-.28-.27c-.32-.36-.7-.61-.74-.57a2.81,2.81,0,0,0,.4.62c.21.28.26.34.27.46,0,.27-.23.58-.41.56s-.16-.11-.24-.22a8.82,8.82,0,0,0-1.06-1.21c.14-.23.29-.48.47-.75a29.75,29.75,0,0,1,3.43-4.09,33.3,33.3,0,0,1,3-2.89c1-.83,2.51-2,2.51-2.06s2.63-2.07,2.63-2.07a4.36,4.36,0,0,0,.52-.89c.25-.63.6-1.92.6-1.92s-.28-.85-.49-.86c-.47,0-.81,2.39-1.82,3.59a9.42,9.42,0,0,1-1.66,1.32c-.77.57-1.86,1.38-2.46,1.87a44.27,44.27,0,0,0-3.15,3.19,32.2,32.2,0,0,0-2.77,3.11A17.93,17.93,0,0,0,24,42.07c-.15.28-.28.54-.4.79l-1.7-.8a10.36,10.36,0,0,0-1.66-.63,12.85,12.85,0,0,0-2.6-.44,10.55,10.55,0,0,0-1.68-.05c-.48,0-1.27.12-1.27.12a2.43,2.43,0,0,1-.89-.37.89.89,0,0,1-.37-.43c-.05-.22.13-.34.61-1,.19-.29.19-.31.36-.56s.42-.55.48-.63a7.33,7.33,0,0,0,.82-1.51c.38-.78.78-1.54,1.16-2.32,1.46-3,1.37-2.31,1.87-3.51a4.37,4.37,0,0,1,.88-1.49,3.17,3.17,0,0,1,1.35-.87c.7-.21,1.16,0,2.35.17,1.88.26,1.9.31,2.78.4a24.46,24.46,0,0,0,3.19.1c1.69,0,2-.1,2.25-.23A3.78,3.78,0,0,0,33.09,27a12.62,12.62,0,0,0,.48-1.59c.24-.88.75-2.46.75-2.46s-.41-.81-.57-.81-.33,2.1-.84,3.69a4,4,0,0,1-.84,1.67,3.48,3.48,0,0,1-1.3.82c-.86.32-1.42.2-3.92,0-2.27-.23-2-.15-2.59-.25a21.71,21.71,0,0,0-2.43-.26h-.6a6.89,6.89,0,0,1,.32-1.13,2.41,2.41,0,0,1,1.13-1.12c.64-.33,1.38-.2,2.95.18l.73.19c1.36.29,2.23.47,3,0a2.33,2.33,0,0,0,1.06-2.18,2.8,2.8,0,0,0-.52-1.23c-.31-.45-.46-.42-.9-1a5.73,5.73,0,0,1-.77-1.23s-.06-.13-.42-1.12l-.43.1a11,11,0,0,0,.36,1.15,4.89,4.89,0,0,0,1.07,1.62c.39.38.6.43.83.82a2,2,0,0,1-.47,2.54,2,2,0,0,1-1.27.21,6.19,6.19,0,0,1-1.5-.3,9.91,9.91,0,0,0-2.26-.44,3.34,3.34,0,0,0-1.74.25,2.94,2.94,0,0,0-1.19,1.09,2.23,2.23,0,0,0-.37.93c-.05.41.06.62-.1.81s-.34.07-.72.21a2.88,2.88,0,0,0-1,.62,3,3,0,0,0-.55,1.05s.06-.14-.77,1.55c-1.17,2.37-1.16,2.41-1.51,3-.21.37-.13.21-.87,1.48-1,1.74-.85,1.52-1,1.75-.58.88-1.47,2-1.43,2.6a1.07,1.07,0,0,0,.09.34,1.89,1.89,0,0,0,.49.49,14,14,0,0,0-2.54.66c-.89.33-2.48,1-2.48,1l-.35,1.06c1.22-.63,2.24-1.25,2.24-1.25a8.86,8.86,0,0,1,1.15-.39,17.49,17.49,0,0,1,2-.53,16.72,16.72,0,0,1,2.69-.19s.54,0,1.42,0c1.18.08,1.36.19,1.41.32s0,.3-.51.94A13.28,13.28,0,0,1,17.55,44a29.06,29.06,0,0,1-2.66,2.42c-1.81,1.38-3,2-3,2.07a12.41,12.41,0,0,0,3.66-1.94A20.81,20.81,0,0,0,18.4,44c.49-.53.94-1.12.94-1.12.27-.33.7-.89.7-.89s.43.26.83.48c.56.29,1.12.52,1.13.53l1.19.68a8.3,8.3,0,0,1-2.06,3.06,17.37,17.37,0,0,1-4.62,3.15c-1.15.5-1.28.38-4.32,1.53-1,.39-1.68.62-3,1.09-1.72.6-2.49.84-3.45.66a8.86,8.86,0,0,1-1.44-.43c-1-.37-1.06-.59-1.62-.64A2.93,2.93,0,0,0,1,52.45L0,53H0c-.08.43-.08,1.08.09,1.14s.34-.64,1-1A2.21,2.21,0,0,1,2.49,53a12,12,0,0,1,2.89.93c.85.23,1.89-.09,4-.72,1.23-.37,1.42-.51,3.71-1.34l2.31,2.6,1.88-.52L14.87,51.2c.94-.33,1.12-.36,1.92-.69l.82-.35L20.2,53l1.23-.66L19,49.54a8.37,8.37,0,0,0,2-1.37l2.45,2.58.72-.82L21.8,47.42A7.88,7.88,0,0,0,23,45.68l2.34,2.76.53-1.21-2.33-2.84c.06-.16.14-.34.24-.56s.21-.45.4-.8c.09.14.38.54.65.87.49.61.73.91.91.92.36,0,.56-.45,1.12-1.11a12.72,12.72,0,0,1,1.47-1.31c1.36-1.14,2.29-1.59,4.11-2.87,1.37-1,2.26-1.7,3-2.29a15.76,15.76,0,0,0,2.76-3.08,3.09,3.09,0,0,0,.44-.95A19.17,19.17,0,0,0,38.82,30.21ZM23.8,43h0l0,0Z" transform="translate(0.6 -0.11)"/><path class="cls-5" d="M23.85,43l-.05,0h0Z" transform="translate(0.6 -0.11)"/><path class="cls-6" d="M29.66,32.07" transform="translate(0.6 -0.11)"/><path class="cls-5" d="M23.85,43l-.05,0h0Z" transform="translate(0.6 -0.11)"/><path class="cls-5" d="M23.64,41.28l-5-1.28a1,1,0,0,1-.48-1.34l5.47-9.6,6.45.4a1,1,0,0,1,.49,1.34Z" transform="translate(0.6 -0.11)"/><path class="cls-5" d="M34.28,24.94c-.2.06,0,.64-.18,1.72A8.48,8.48,0,0,1,33,29.36a9.84,9.84,0,0,1-.89,1.44,13.22,13.22,0,0,1-1.6,1.67,24.82,24.82,0,0,0-2.84,3.61,8.71,8.71,0,0,0-.81,1.28s.69-.94,1.77-2c.63-.64.58-.48,2.66-2.28,1.24-1.07,1.29-1.15,1.79-1.51a12.57,12.57,0,0,0,1.5-1.14,4.54,4.54,0,0,0,1.09-1.31s.06-.11.46-1.13C34.51,24.87,34.28,24.94,34.28,24.94Z" transform="translate(0.6 -0.11)"/><path class="cls-5" d="M28.23,26.66a4,4,0,0,0,2.77-1,3.73,3.73,0,0,0,1-1.89,6.55,6.55,0,0,0,0-1.6c0-.36,0-.16-.13-1a2.63,2.63,0,0,0-.08-.46c-.05-.19-.07-.2-.11-.37s0-.22-.08-.3a.37.37,0,0,0-.45-.15,11.21,11.21,0,0,1,.34,1.62h0A11.33,11.33,0,0,1,31.53,23a6.72,6.72,0,0,1-.06,1.3,3.1,3.1,0,0,1-3.24,2.38Z" transform="translate(0.6 -0.11)"/><path class="cls-1" d="M23.81,29.78c.05-.05.56.35,1,.93a2.68,2.68,0,0,1,.58,1.05,2.81,2.81,0,0,1-.35,1.89,10.66,10.66,0,0,1-.67,1.07c-.37.57-.43.62-.57.87A4.51,4.51,0,0,0,23.3,37,9.29,9.29,0,0,0,23.36,40a5.21,5.21,0,0,1-.63-2.48,5.75,5.75,0,0,1,.07-1.08,4.73,4.73,0,0,1,.34-1.18,5.85,5.85,0,0,1,.59-1c.49-.69.59-.66.78-1a2.8,2.8,0,0,0,.3-1.68A3.88,3.88,0,0,0,23.81,29.78Z" transform="translate(0.6 -0.11)"/></g><g id="Shoe_laces" data-name="Shoe laces"><path class="cls-7" d="M15.51,39.29a20.1,20.1,0,0,0-3.35.41,8.24,8.24,0,0,0-1.49.44,7.34,7.34,0,0,0-1.73,1A.42.42,0,0,0,9,41.6a.4.4,0,0,0,.39.14A8.06,8.06,0,0,1,11,40.82a9.39,9.39,0,0,1,2.1-.56A17,17,0,0,1,15.65,40a.49.49,0,0,0,.24-.16.31.31,0,0,0,0-.25h0A.36.36,0,0,0,15.51,39.29Z" transform="translate(0.6 -0.11)"/><path class="cls-7" d="M17.52,36.36a14.49,14.49,0,0,0-3,.11,11.2,11.2,0,0,0-2.45.59,10.87,10.87,0,0,0-2,1,.5.5,0,0,0,0,.42.45.45,0,0,0,.49.19,12,12,0,0,1,1.85-.89A14.46,14.46,0,0,1,14,37.32h0l.86-.13c.3,0,1.29-.12,2.63-.15a.56.56,0,0,0,.15-.21.69.69,0,0,0,0-.18h0Z" transform="translate(0.6 -0.11)"/><path class="cls-7" d="M18.59,33.48l-1.76-.1a5.9,5.9,0,0,0-2,.09l-.78.24-.89.3a9.08,9.08,0,0,0-2,1,.37.37,0,0,0,.46.57,13.37,13.37,0,0,1,1.89-.93A7.93,7.93,0,0,1,15,34.24a8.26,8.26,0,0,1,1-.08,23.71,23.71,0,0,1,2.53.06.44.44,0,0,0,.23-.17.39.39,0,0,0,.08-.25h0a.4.4,0,0,0-.09-.19A.38.38,0,0,0,18.59,33.48Z" transform="translate(0.6 -0.11)"/><path class="cls-7" d="M19.47,30.22a20.6,20.6,0,0,0-3.8-.11,8.48,8.48,0,0,0-1.73.26,7.69,7.69,0,0,0-2.09.93.57.57,0,0,0,0,.55.46.46,0,0,0,.42.25,8.3,8.3,0,0,1,1.94-.83A9.69,9.69,0,0,1,16.63,31a20.31,20.31,0,0,1,2.9.09.42.42,0,0,0,.29-.14.45.45,0,0,0,.1-.3h0A.43.43,0,0,0,19.47,30.22Z" transform="translate(0.6 -0.11)"/></g><g id="Only_Vans" data-name="Only Vans"><text x="0.6" y="-0.11"/><text x="0.6" y="-0.11"/><text x="0.6" y="-0.11"/><text class="cls-8" transform="translate(27.79 51.13) scale(0.76 1)">Only <tspan class="cls-9" x="20.01" y="0">V</tspan><tspan class="cls-10" x="24.42" y="0">ans</tspan><tspan x="0" y="8.39"> </tspan></text></g></svg>